<?xml version="1.0" standalone="no"?>
<!DOCTYPE svg PUBLIC "-//W3C//DTD SVG 20010904//EN"
 "http://www.w3.org/TR/2001/REC-SVG-20010904/DTD/svg10.dtd">
<svg version="1.0" xmlns="http://www.w3.org/2000/svg"
 width="2000.000000pt" height="2000.000000pt" viewBox="0 0 2000.000000 2000.000000"
 preserveAspectRatio="xMidYMid meet">
<metadata>
Created by potrace 1.14, written by Peter Selinger 2001-2017
</metadata>
<g transform="translate(0.000000,2000.000000) scale(0.100000,-0.100000)"
fill="#000000" stroke="none">
<path d="M5640 19989 c-1347 -96 -2611 -631 -3615 -1530 -156 -140 -426 -414
-551 -559 -754 -876 -1241 -1936 -1408 -3065 -66 -445 -61 -65 -61 -4835 0
-4081 1 -4324 18 -4490 80 -782 268 -1447 597 -2115 310 -630 655 -1111 1160
-1616 494 -494 976 -842 1591 -1148 672 -334 1320 -520 2124 -608 149 -16 442
-17 4380 -21 2992 -2 4275 0 4410 8 995 57 1924 343 2773 852 1221 732 2161
1893 2617 3230 174 511 271 986 315 1542 14 177 14 8555 0 8732 -34 429 -99
806 -206 1192 -441 1591 -1516 2936 -2979 3725 -306 165 -610 296 -960 412
-489 162 -966 256 -1500 295 -171 12 -8532 11 -8705 -1z m5085 -5179 c845 -40
1505 -128 2140 -286 1922 -478 3048 -1533 3369 -3154 19 -96 37 -194 41 -217
l7 -43 -1914 0 -1914 0 -77 89 c-172 201 -408 360 -692 466 -211 79 -571 155
-924 195 -660 75 -1530 33 -2077 -100 -839 -203 -1277 -656 -1353 -1400 -14
-132 -14 -628 0 -760 37 -370 165 -668 382 -897 455 -479 1295 -671 2777 -634
217 6 460 15 540 21 790 56 1271 206 1632 507 77 64 211 201 229 236 9 16 -62
17 -1436 17 l-1445 0 0 790 0 790 3135 0 3135 0 0 -2650 0 -2650 -900 0 c-495
0 -900 2 -900 6 0 3 -36 292 -80 642 -44 350 -82 669 -86 707 -4 39 -8 72 -10
73 -1 2 -58 -46 -126 -107 -724 -650 -1700 -1065 -2903 -1235 -458 -65 -715
-81 -1295 -80 -588 0 -1001 21 -1485 74 -2212 244 -3632 1005 -4316 2314 -259
496 -408 1073 -449 1736 -13 214 -13 1217 0 1430 67 1081 407 1915 1048 2572
916 938 2413 1448 4542 1547 257 12 1162 13 1405 1z"/>
</g>
</svg>
